#define close_hover_width 10
#define close_hover_height 10
static unsigned char close_hover_bits[] = {
   0xff, 0x03, 0x00, 0x00, 0xce, 0x01, 0xfc, 0x00, 0x78, 0x00, 0x78, 0x00,
   0xfc, 0x00, 0xce, 0x01, 0x00, 0x00, 0xff, 0x03 };
