#define desk_width 10
#define desk_height 10
static unsigned char desk_bits[] = {
   0xff, 0x03, 0xff, 0x03, 0x00, 0x00, 0x00, 0x00, 0xff, 0x03, 0xff, 0x03,
   0x00, 0x00, 0x00, 0x00, 0x00, 0x00, 0x00, 0x00 };
