#define desk_hover_width 10
#define desk_hover_height 10
static unsigned char desk_hover_bits[] = {
   0xff, 0x03, 0x00, 0x00, 0x00, 0x00, 0x00, 0x00, 0xff, 0x03, 0x00, 0x00,
   0x30, 0x00, 0x78, 0x00, 0xfc, 0x00, 0x30, 0x00 };
