#define desk_toggled_width 10
#define desk_toggled_height 10
static unsigned char desk_toggled_bits[] = {
   0xff, 0x03, 0xff, 0x03, 0x00, 0x00, 0x00, 0x00, 0xff, 0x03, 0xff, 0x03,
   0x00, 0x00, 0x30, 0x00, 0x78, 0x00, 0xfc, 0x00 };
