#define shade_hover_width 10
#define shade_hover_height 10
static unsigned char shade_hover_bits[] = {
   0xff, 0x03, 0x00, 0x00, 0x30, 0x00, 0x78, 0x00, 0xfc, 0x00, 0x30, 0x00,
   0x30, 0x00, 0x30, 0x00, 0x30, 0x00, 0x00, 0x00 };
